<svg width="24" height="24" viewBox="0 0 24 24" fill="none" xmlns="http://www.w3.org/2000/svg">
<g id="Frame" clip-path="url(#clip0_329_77478)">
<g id="Layer 2">
<g id="Circle">
<g id="03.Instagram">
<path id="Background" d="M24 12C24 5.37258 18.6274 0 12 0C5.37258 0 0 5.37258 0 12C0 18.6274 5.37258 24 12 24C18.6274 24 24 18.6274 24 12Z" fill="url(#paint0_linear_329_77478)"/>
<g id="Group">
<path id="Shade" opacity="0.1" d="M21.0314 4.1055C19.282 7.31708 16.8078 10.6297 13.7162 13.7213C10.6246 16.8129 7.31197 19.2823 4.10513 21.0318C3.90408 20.8571 3.70881 20.675 3.51934 20.4855C2.37406 19.3785 1.46064 18.0545 0.832344 16.5908C0.204046 15.1271 -0.126556 13.5529 -0.140186 11.9601C-0.153815 10.3673 0.1498 8.78772 0.752958 7.31347C1.35611 5.83922 2.24674 4.49981 3.37291 3.37333C4.49908 2.24684 5.83824 1.35584 7.31232 0.752273C8.7864 0.148705 10.3659 -0.155352 11.9587 -0.142167C13.5515 -0.128982 15.1258 0.201181 16.5896 0.82907C18.0535 1.45696 19.3778 2.37001 20.4851 3.51498C20.6746 3.70445 20.8567 3.90129 21.0314 4.1055Z" fill="white"/>
<g id="Icon">
<path id="Vector" d="M14.8415 5.68457H9.15728C8.236 5.68457 7.35245 6.05055 6.70101 6.70199C6.04957 7.35343 5.68359 8.23698 5.68359 9.15825V14.8425C5.68359 15.7637 6.04957 16.6473 6.70101 17.2987C7.35245 17.9502 8.236 18.3161 9.15728 18.3161H14.8415C15.7628 18.3161 16.6463 17.9502 17.2978 17.2987C17.9492 16.6473 18.3152 15.7637 18.3152 14.8425V9.15825C18.3152 8.23698 17.9492 7.35343 17.2978 6.70199C16.6463 6.05055 15.7628 5.68457 14.8415 5.68457ZM17.2099 14.3435C17.2099 15.104 16.9078 15.8333 16.3701 16.3711C15.8323 16.9088 15.103 17.2109 14.3425 17.2109H9.65623C8.89575 17.2109 8.16643 16.9088 7.62869 16.3711C7.09095 15.8333 6.78886 15.104 6.78886 14.3435V9.6572C6.78886 8.89673 7.09095 8.1674 7.62869 7.62967C8.16643 7.09193 8.89575 6.78983 9.65623 6.78983H14.3425C15.103 6.78983 15.8323 7.09193 16.3701 7.62967C16.9078 8.1674 17.2099 8.89673 17.2099 9.6572V14.3435Z" fill="white"/>
<path id="Vector_2" d="M14.3029 9.7205L14.2729 9.6905L14.2477 9.66524C13.6506 9.0703 12.8421 8.73642 11.9992 8.73682C11.5736 8.73971 11.1527 8.82643 10.7606 8.99204C10.3685 9.15764 10.0129 9.39887 9.7141 9.70196C9.41527 10.005 9.17908 10.364 9.01903 10.7584C8.85899 11.1528 8.77822 11.5749 8.78134 12.0005C8.78069 12.8643 9.12118 13.6933 9.72871 14.3073C10.0263 14.6085 10.3809 14.8474 10.7718 15.0101C11.1627 15.1728 11.5821 15.2559 12.0055 15.2547C12.6407 15.2414 13.2582 15.0435 13.7828 14.6853C14.3074 14.3271 14.7164 13.8239 14.96 13.2372C15.2035 12.6505 15.2711 12.0056 15.1544 11.3811C15.0377 10.7567 14.7419 10.1797 14.3029 9.7205ZM11.9992 14.1416C11.5745 14.1475 11.1577 14.027 10.8017 13.7954C10.4456 13.5638 10.1666 13.2315 9.9999 12.8408C9.83324 12.4502 9.78653 12.0188 9.86573 11.6015C9.94492 11.1842 10.1464 10.7999 10.4446 10.4975C10.7428 10.195 11.1243 9.98812 11.5404 9.90305C11.9565 9.81797 12.3885 9.85859 12.7815 10.0197C13.1745 10.1809 13.5106 10.4552 13.7473 10.8079C13.9839 11.1607 14.1102 11.5758 14.1103 12.0005C14.1124 12.2797 14.0594 12.5566 13.9544 12.8154C13.8494 13.0741 13.6945 13.3096 13.4984 13.5085C13.3024 13.7073 13.0691 13.8656 12.8118 13.9742C12.5546 14.0828 12.2785 14.1397 11.9992 14.1416Z" fill="white"/>
<path id="Vector_3" d="M16.1724 8.58667C16.1732 8.68799 16.1541 8.78848 16.116 8.88239C16.078 8.97629 16.0218 9.06177 15.9506 9.13393C15.8795 9.20609 15.7948 9.26351 15.7015 9.3029C15.6081 9.3423 15.5079 9.3629 15.4066 9.36351C15.3061 9.36347 15.2067 9.34349 15.114 9.30473C15.0213 9.26597 14.9372 9.20921 14.8666 9.13772C14.7596 9.02919 14.6869 8.89165 14.6573 8.74216C14.6278 8.59266 14.6428 8.43779 14.7005 8.29674C14.7581 8.15568 14.8559 8.03466 14.9817 7.94867C15.1075 7.86267 15.2558 7.8155 15.4082 7.81299C15.5865 7.81295 15.7592 7.87554 15.8961 7.98983L15.9119 8.00562C15.9373 8.02635 15.9606 8.04963 15.9813 8.07509L15.9987 8.09404C16.1117 8.23328 16.1731 8.40734 16.1724 8.58667Z" fill="white"/>
</g>
</g>
</g>
</g>
</g>
</g>
<defs>
<linearGradient id="paint0_linear_329_77478" x1="3.51474" y1="3.51474" x2="20.4853" y2="20.4853" gradientUnits="userSpaceOnUse">
<stop stop-color="#FAE100"/>
<stop offset="0.15" stop-color="#FCB720"/>
<stop offset="0.3" stop-color="#FF7950"/>
<stop offset="0.5" stop-color="#FF1C74"/>
<stop offset="1" stop-color="#6C1CD1"/>
</linearGradient>
<clipPath id="clip0_329_77478">
<rect width="24" height="24" fill="white"/>
</clipPath>
</defs>
</svg>
