<svg width="24" height="24" viewBox="0 0 24 24" fill="none" xmlns="http://www.w3.org/2000/svg">
<g id="Frame" clip-path="url(#clip0_329_77472)">
<g id="Layer 2">
<g id="Color">
<g id="02.YouTube">
<path id="Background" d="M12 24C18.6274 24 24 18.6274 24 12C24 5.37258 18.6274 0 12 0C5.37258 0 0 5.37258 0 12C0 18.6274 5.37258 24 12 24Z" fill="#FF0000"/>
<path id="Icon" d="M15.9262 7.48584H8.07254C7.75869 7.48584 7.44791 7.54768 7.15797 7.66784C6.86802 7.78799 6.6046 7.9641 6.38274 8.1861C6.16089 8.40811 5.98495 8.67165 5.86499 8.96167C5.74503 9.25169 5.68339 9.56251 5.68359 9.87637V14.1237C5.68339 14.4376 5.74503 14.7484 5.86499 15.0384C5.98495 15.3285 6.16089 15.592 6.38274 15.814C6.6046 16.036 6.86802 16.2121 7.15797 16.3323C7.44791 16.4524 7.75869 16.5143 8.07254 16.5143H15.9262C16.2401 16.5143 16.5509 16.4524 16.8408 16.3323C17.1307 16.2121 17.3942 16.036 17.616 15.814C17.8379 15.592 18.0138 15.3285 18.1338 15.0384C18.2537 14.7484 18.3154 14.4376 18.3152 14.1237V9.87637C18.3154 9.56251 18.2537 9.25169 18.1338 8.96167C18.0138 8.67165 17.8379 8.40811 17.616 8.1861C17.3942 7.9641 17.1307 7.78799 16.8408 7.66784C16.5509 7.54768 16.2401 7.48584 15.9262 7.48584ZM10.3352 13.9358V10.0643L13.6636 12.0001L10.3352 13.9358Z" fill="white"/>
</g>
</g>
</g>
</g>
<defs>
<clipPath id="clip0_329_77472">
<rect width="24" height="24" fill="white"/>
</clipPath>
</defs>
</svg>
