<svg width="16" height="16" viewBox="0 0 16 16" fill="none" xmlns="http://www.w3.org/2000/svg">
<g clip-path="url(#clip0_241_11420)">
<path d="M8.00033 0.666992C6.54993 0.666992 5.13211 1.09708 3.92615 1.90288C2.72019 2.70868 1.78025 3.85399 1.22521 5.19398C0.67017 6.53397 0.524945 8.00846 0.807903 9.43099C1.09086 10.8535 1.78929 12.1602 2.81488 13.1858C3.84046 14.2114 5.14714 14.9098 6.56967 15.1928C7.99219 15.4757 9.46668 15.3305 10.8067 14.7754C12.1467 14.2204 13.292 13.2805 14.0978 12.0745C14.9036 10.8685 15.3337 9.45072 15.3337 8.00033C15.3314 6.05611 14.558 4.19218 13.1832 2.81741C11.8085 1.44264 9.94455 0.669286 8.00033 0.666992ZM10.4717 10.4717C10.3466 10.5966 10.1771 10.6669 10.0003 10.6669C9.82355 10.6669 9.65401 10.5966 9.529 10.4717L7.529 8.47166C7.40396 8.34666 7.3337 8.17712 7.33366 8.00033V4.00033C7.33366 3.82351 7.4039 3.65395 7.52892 3.52892C7.65395 3.4039 7.82352 3.33366 8.00033 3.33366C8.17714 3.33366 8.34671 3.4039 8.47173 3.52892C8.59676 3.65395 8.667 3.82351 8.667 4.00033V7.72433L10.4717 9.52899C10.5966 9.65401 10.6669 9.82355 10.6669 10.0003C10.6669 10.1771 10.5966 10.3466 10.4717 10.4717Z" fill="#C20E34"/>
</g>
<defs>
<clipPath id="clip0_241_11420">
<rect width="16" height="16" fill="white"/>
</clipPath>
</defs>
</svg>
