<svg width="16" height="16" viewBox="0 0 16 16" fill="none" xmlns="http://www.w3.org/2000/svg">
<g clip-path="url(#clip0_241_11285)">
<path d="M7.0625 15.0312C7.83915 15.0312 8.46875 14.4017 8.46875 13.625C8.46875 12.8483 7.83915 12.2188 7.0625 12.2188C6.28585 12.2188 5.65625 12.8483 5.65625 13.625C5.65625 14.4017 6.28585 15.0312 7.0625 15.0312Z" fill="#C20E34"/>
<path d="M11.7812 15.0312C12.5579 15.0312 13.1875 14.4017 13.1875 13.625C13.1875 12.8483 12.5579 12.2188 11.7812 12.2188C11.0046 12.2188 10.375 12.8483 10.375 13.625C10.375 14.4017 11.0046 15.0312 11.7812 15.0312Z" fill="#C20E34"/>
<path d="M0.468747 1.90628H2.42352L4.68657 9.82851L4.50907 10.1835C4.0417 11.1173 4.72016 12.2187 5.767 12.2187H13.6562C13.9153 12.2187 14.1249 12.0091 14.1249 11.75C14.1249 11.4909 13.9153 11.2812 13.6562 11.2812H5.767C5.41891 11.2812 5.19141 10.9147 5.34769 10.6028L5.47725 10.3437H13.6562C13.8654 10.3437 14.0494 10.205 14.1071 10.0036L15.9821 3.44114C16.0223 3.29971 15.994 3.14771 15.9056 3.03008C15.8168 2.91289 15.6781 2.84377 15.5312 2.84377H3.66632L3.22779 1.30887C3.17011 1.10747 2.98611 0.96875 2.77689 0.96875H0.468747C0.209655 0.96875 0 1.17841 0 1.4375C0 1.69659 0.209655 1.90628 0.468747 1.90628Z" fill="#C20E34"/>
</g>
<defs>
<clipPath id="clip0_241_11285">
<rect width="16" height="16" fill="white"/>
</clipPath>
</defs>
</svg>
