<svg width="24" height="24" viewBox="0 0 24 24" fill="none" xmlns="http://www.w3.org/2000/svg">
<g clip-path="url(#clip0_914_91304)">
<path fill-rule="evenodd" clip-rule="evenodd" d="M13.4213 1.36711L14.8503 2.43679C15.2412 2.72934 15.6526 2.87906 16.14 2.9062L17.9223 3.00534C18.9895 3.06468 19.8562 3.79195 20.1 4.83267L20.5071 6.57065C20.6185 7.04596 20.8374 7.42509 21.1933 7.75917L22.4949 8.98078C23.2743 9.71221 23.4707 10.8265 22.9885 11.7804L22.1833 13.3734C21.9631 13.8091 21.887 14.2402 21.945 14.725L22.1568 16.4974C22.2837 17.5587 21.718 18.5385 20.7355 18.9593L19.0945 19.6621C18.6458 19.8543 18.3104 20.1357 18.0432 20.5442L17.0662 22.0381C16.4812 22.9327 15.418 23.3196 14.3949 23.0104L12.6862 22.494C12.2189 22.3528 11.7812 22.3528 11.3138 22.494L9.60513 23.0104C8.58203 23.3196 7.51881 22.9327 6.93382 22.0381L5.9568 20.5442C5.68956 20.1357 5.35422 19.8543 4.90549 19.6621L3.26449 18.9592C2.28199 18.5384 1.71625 17.5586 1.8431 16.4973L2.05497 14.7249C2.11291 14.2402 2.03688 13.809 1.81666 13.3733L1.01139 11.7803C0.529236 10.8264 0.72569 9.71217 1.50503 8.98068L2.80661 7.75907C3.16258 7.425 3.38144 7.04587 3.49277 6.57056L3.89992 4.83257C4.14367 3.7919 5.01044 3.06464 6.07764 3.00525L7.85988 2.90611C8.34733 2.87901 8.75871 2.72925 9.14955 2.4367L10.5786 1.36701C11.4342 0.726605 12.5657 0.726605 13.4213 1.36711ZM11.0883 12.6133L9.53753 11.0625C9.13558 10.6605 8.4836 10.6605 8.08169 11.0625C7.67974 11.4644 7.67974 12.1164 8.08169 12.5183L10.3627 14.7993C10.7646 15.2012 11.4166 15.2012 11.8185 14.7993C13.1934 13.4244 14.5526 12.0341 15.9212 10.6529C16.3202 10.2502 16.3189 9.60028 15.9167 9.20029C15.5144 8.80021 14.8627 8.80134 14.4632 9.20479L11.0883 12.6133ZM11.9999 4.3349C9.883 4.3349 7.96642 5.193 6.57911 6.58031C5.1918 7.96767 4.33371 9.8842 4.33371 12.0011C4.33371 14.118 5.1918 16.0346 6.57911 17.4219C7.96642 18.8092 9.883 19.6673 11.9999 19.6673C14.1168 19.6673 16.0334 18.8092 17.4207 17.4219C18.808 16.0346 19.6661 14.118 19.6661 12.0011C19.6661 9.8842 18.808 7.96762 17.4207 6.58031C16.0334 5.193 14.1168 4.3349 11.9999 4.3349ZM16.8904 7.11061C15.6389 5.85904 13.9098 5.0849 11.9999 5.0849C10.09 5.0849 8.36097 5.85904 7.10941 7.11061C5.85785 8.36217 5.08371 10.0912 5.08371 12.0011C5.08371 13.911 5.85785 15.6401 7.10941 16.8916C8.36097 18.1432 10.09 18.9173 11.9999 18.9173C13.9098 18.9173 15.6389 18.1432 16.8904 16.8917C18.142 15.6401 18.9161 13.911 18.9161 12.0012C18.9161 10.0912 18.142 8.36217 16.8904 7.11061Z" fill="#C20E34"/>
</g>
<defs>
<clipPath id="clip0_914_91304">
<rect width="24" height="24" fill="white"/>
</clipPath>
</defs>
</svg>
