<svg width="41" height="40" viewBox="0 0 41 40" fill="none" xmlns="http://www.w3.org/2000/svg">
<g clip-path="url(#clip0_241_11677)">
<path d="M35.2124 12.7273H29.7579V5.45459H4.30339C2.29424 5.45459 0.666992 7.08184 0.666992 9.09098V29.091H4.30339C4.30339 32.1002 6.74881 34.5456 9.75794 34.5456C12.7671 34.5456 15.2125 32.1002 15.2125 29.091H26.1216C26.1216 32.1002 28.567 34.5456 31.5761 34.5456C34.5853 34.5456 37.0307 32.1002 37.0307 29.091H40.6671V20.0001L35.2124 12.7273ZM9.75794 31.8182C8.24882 31.8182 7.03066 30.6001 7.03066 29.0909C7.03066 27.5818 8.24882 26.3637 9.75794 26.3637C11.2671 26.3637 12.4852 27.5818 12.4852 29.0909C12.4852 30.6001 11.267 31.8182 9.75794 31.8182ZM31.5761 31.8182C30.067 31.8182 28.8489 30.6001 28.8489 29.0909C28.8489 27.5818 30.067 26.3637 31.5761 26.3637C33.0853 26.3637 34.3034 27.5818 34.3034 29.0909C34.3034 30.6001 33.0852 31.8182 31.5761 31.8182ZM29.7579 20.0001V15.4547H34.3033L37.876 20.0001H29.7579Z" fill="#E36C0A"/>
</g>
<defs>
<clipPath id="clip0_241_11677">
<rect width="40" height="40" fill="white" transform="translate(0.666992)"/>
</clipPath>
</defs>
</svg>
