<svg width="16" height="16" viewBox="0 0 16 16" fill="none" xmlns="http://www.w3.org/2000/svg">
<path d="M7.99772 0C4.80256 0 2.20312 2.59944 2.20312 5.79456C2.20312 9.75981 7.38872 15.581 7.6095 15.8269C7.81687 16.0579 8.17894 16.0575 8.38594 15.8269C8.60672 15.581 13.7923 9.75981 13.7923 5.79456C13.7922 2.59944 11.1928 0 7.99772 0ZM7.99772 8.70997C6.39016 8.70997 5.08234 7.40212 5.08234 5.79456C5.08234 4.187 6.39019 2.87919 7.99772 2.87919C9.60525 2.87919 10.9131 4.18703 10.9131 5.79459C10.9131 7.40216 9.60525 8.70997 7.99772 8.70997Z" fill="#175085"/>
</svg>
