<svg width="40" height="40" viewBox="0 0 40 40" fill="none" xmlns="http://www.w3.org/2000/svg">
<path d="M30.625 20C25.4557 20 21.25 24.2057 21.25 29.375C21.25 34.5443 25.4557 38.75 30.625 38.75C35.7943 38.75 40 34.5443 40 29.375C40 24.2057 35.7943 20 30.625 20ZM36.141 27.8598L30.2816 33.7191C30.0527 33.948 29.7529 34.0625 29.4531 34.0625C29.1534 34.0625 28.8534 33.948 28.6246 33.7191L25.109 30.2035C24.6512 29.7458 24.6512 29.0041 25.109 28.5464C25.5667 28.0887 26.3084 28.0887 26.7661 28.5464L29.4531 31.2335L34.484 26.2027C34.9417 25.7449 35.6834 25.7449 36.1411 26.2027C36.5988 26.6604 36.5988 27.402 36.141 27.8598Z" fill="#E36C0A"/>
<path d="M31.7969 1.25H3.51562C1.57703 1.25 0 2.82703 0 4.76562V5.9375H35.3125V4.76562C35.3125 2.82703 33.7355 1.25 31.7969 1.25Z" fill="#E36C0A"/>
<path d="M35.3125 8.28125H0V10.625H35.3125V8.28125Z" fill="#E36C0A"/>
<path d="M0 12.9688V25.8594C0 27.798 1.57703 29.375 3.51562 29.375H18.9062C18.9062 22.9137 24.1637 17.6562 30.625 17.6562C32.2933 17.6562 33.8744 18.0183 35.3125 18.6496V12.9688H0ZM13.0469 24.6875H5.85938C5.21164 24.6875 4.6875 24.1634 4.6875 23.5156C4.6875 22.8679 5.21164 22.3438 5.85938 22.3438H13.0469C13.6946 22.3438 14.2188 22.8679 14.2188 23.5156C14.2188 24.1634 13.6946 24.6875 13.0469 24.6875ZM13.0469 20H5.85938C5.21164 20 4.6875 19.4759 4.6875 18.8281C4.6875 18.1804 5.21164 17.6562 5.85938 17.6562H13.0469C13.6946 17.6562 14.2188 18.1804 14.2188 18.8281C14.2188 19.4759 13.6946 20 13.0469 20Z" fill="#E36C0A"/>
</svg>
