<svg width="41" height="40" viewBox="0 0 41 40" fill="none" xmlns="http://www.w3.org/2000/svg">
<path fill-rule="evenodd" clip-rule="evenodd" d="M17.6088 6.36785L20.1841 7.67677V1.03467H14.0352V7.67677L16.6078 6.3693C16.9114 6.21534 17.2815 6.2029 17.6088 6.36785Z" fill="#E36C0A"/>
<path fill-rule="evenodd" clip-rule="evenodd" d="M32.8529 14.4615V2.14593C32.8529 1.53213 32.3554 1.03467 31.7416 1.03467H22.4071V9.48488C22.4071 10.2839 21.5545 10.8988 20.7219 10.4364L17.11 8.60108L13.4235 10.4746C12.6835 10.8494 11.8151 10.3024 11.8156 9.48488L11.813 1.03467H2.47845C1.86465 1.03467 1.36719 1.53213 1.36719 2.14593V31.4091C1.36719 32.0229 1.86465 32.5204 2.47845 32.5204H14.7941C13.4232 29.1426 13.4377 25.3855 14.8323 22.019C17.7484 14.9784 25.7912 11.5957 32.8529 14.4615Z" fill="#E36C0A"/>
<path fill-rule="evenodd" clip-rule="evenodd" d="M35.8853 19.0782C33.7771 16.97 30.8646 15.666 27.6478 15.666C24.4309 15.666 21.5185 16.97 19.4103 19.0782C17.302 21.1864 15.998 24.0989 15.998 27.3157C15.998 30.5326 17.302 33.445 19.4103 35.5532C21.5185 37.6615 24.4309 38.9654 27.6478 38.9654C30.8646 38.9654 33.7771 37.6615 35.8853 35.5532C37.9935 33.445 39.2975 30.5326 39.2975 27.3157C39.2975 24.0989 37.9935 21.1864 35.8853 19.0782ZM32.3324 30.9635C31.5545 31.7414 30.48 32.2238 29.2958 32.2238H24.1102C23.4965 32.2238 22.999 31.7263 22.999 31.1125C22.999 30.4987 23.4965 30.0013 24.1102 30.0013H29.2958C30.4372 30.0013 31.3705 29.068 31.3705 27.9266C31.3705 27.3094 31.1778 26.8044 30.761 26.3879C30.3851 26.0117 29.8665 25.7785 29.2958 25.7785H26.2002L26.8603 26.4374C27.2944 26.8689 27.2964 27.5707 26.865 28.0045C26.4335 28.4386 25.7317 28.4403 25.2979 28.0088L22.7443 25.4602C22.3102 25.0287 22.3085 24.3272 22.74 23.8931L25.2886 21.3398C25.7201 20.906 26.4216 20.904 26.8557 21.3355C27.2895 21.767 27.2915 22.4684 26.86 22.9025L26.2078 23.556H29.2958C31.6642 23.556 33.593 25.4848 33.593 27.8531C33.593 29.0865 33.1502 30.1457 32.3324 30.9635Z" fill="#E36C0A"/>
</svg>
