<svg width="16" height="16" viewBox="0 0 16 16" fill="none" xmlns="http://www.w3.org/2000/svg">
<g clip-path="url(#clip0_241_11415)">
<path d="M15.5 6.75V9.25C15.5 9.93945 14.9395 10.5 14.25 10.5H13.9097C13.4316 13.333 10.9673 15.5 8 15.5C7.72363 15.5 7.5 15.2764 7.5 15C7.5 14.7236 7.72363 14.5 8 14.5C10.7568 14.5 13 12.2568 13 9.5V6.5C13 3.74316 10.7568 1.5 8 1.5C5.24316 1.5 3 3.74316 3 6.5V10C3 10.2764 2.77637 10.5 2.5 10.5H1.75C1.06055 10.5 0.5 9.93945 0.5 9.25V6.75C0.5 6.06055 1.06055 5.5 1.75 5.5H2.09033C2.56836 2.66699 5.03271 0.5 8 0.5C10.9673 0.5 13.4316 2.66699 13.9097 5.5H14.25C14.9395 5.5 15.5 6.06055 15.5 6.75ZM8 2.5C5.79443 2.5 4 4.29443 4 6.5V9C4 11.2056 5.79443 13 8 13C10.2056 13 12 11.2056 12 9V6.5C12 4.29443 10.2056 2.5 8 2.5Z" fill="#C20E34"/>
</g>
<defs>
<clipPath id="clip0_241_11415">
<rect width="16" height="16" fill="white"/>
</clipPath>
</defs>
</svg>
