<svg width="40" height="40" viewBox="0 0 40 40" fill="none" xmlns="http://www.w3.org/2000/svg">
<path d="M33.6922 31.4327C32.8866 29.0351 29.6758 27.5343 27.3866 26.5283C26.4898 26.1355 24.007 25.4691 23.7086 24.3399C23.6018 23.9331 23.6162 23.5495 23.7038 23.1819C23.5658 23.2083 23.4258 23.2239 23.281 23.2239H21.7894C20.5986 23.2239 19.631 22.2551 19.631 21.0651C19.631 19.8759 20.599 18.9091 21.7894 18.9091H23.281C23.7738 18.9091 24.241 19.0759 24.6178 19.3735C25.1702 19.2999 25.703 19.1819 26.1998 19.0271C26.8522 17.6603 27.361 16.0259 27.475 14.6191C27.9618 8.59991 24.2718 5.07831 18.981 5.68711C15.1342 6.12991 12.8362 8.99831 12.5878 12.6911C12.3366 16.4551 13.7322 19.2351 15.2146 21.2743C15.8638 22.1659 16.5458 22.7391 16.441 23.8135C16.3194 25.0839 14.961 25.4379 13.9894 25.8283C12.8382 26.2907 11.5982 26.9923 11.0126 27.3167C8.99543 28.4307 6.78143 29.7723 6.28383 31.6075C5.18183 35.6747 8.90343 36.9067 11.9758 37.4755C14.6126 37.9619 17.5858 38.0003 20.0314 38.0003C24.455 38.0003 32.4094 37.8231 33.6922 34.4979C34.057 33.5543 33.9006 32.0507 33.6922 31.4327Z" fill="#E36C0A"/>
<path d="M24.2266 20.4572C24.0242 20.1488 23.6782 19.944 23.2834 19.944H21.7918C21.1694 19.944 20.6674 20.4468 20.6674 21.066C20.6674 21.6876 21.1694 22.1912 21.7918 22.1912H23.2834C23.719 22.1912 24.0886 21.9428 24.275 21.5836C26.3546 21.42 28.1634 20.7848 29.433 19.8468C29.7246 20.0348 30.0694 20.1448 30.4414 20.1448H30.535C31.5718 20.1448 32.4102 19.3056 32.4102 18.2676V14.5204C32.4102 13.774 31.9726 13.13 31.3414 12.8308C31.0662 6.8136 26.085 2 20.0002 2C13.9154 2 8.93344 6.8136 8.65944 12.8308C8.02704 13.1304 7.58984 13.774 7.58984 14.5204V18.2676C7.58984 19.3056 8.42904 20.1448 9.46344 20.1448H9.55824C10.5934 20.1448 11.433 19.3056 11.433 18.2676V14.5204C11.433 13.7848 11.0078 13.1504 10.3898 12.8436C10.6574 7.7736 14.8646 3.7324 20.0002 3.7324C25.1338 3.7324 29.343 7.7736 29.6094 12.8436C28.9922 13.1508 28.5674 13.7848 28.5674 14.5204V18.2676C28.5674 18.5164 28.6158 18.748 28.701 18.9644C27.6082 19.7464 26.0174 20.3036 24.2266 20.4572Z" fill="#E36C0A"/>
</svg>
