<svg width="14" height="14" viewBox="0 0 14 14" fill="none" xmlns="http://www.w3.org/2000/svg">
<g clip-path="url(#clip0_241_11256)">
<path d="M13.8672 13.2383L10.2526 9.68153C11.1991 8.65314 11.7807 7.29308 11.7807 5.79648C11.7803 2.59497 9.14327 0 5.89013 0C2.63699 0 0 2.59497 0 5.79648C0 8.99799 2.63699 11.593 5.89013 11.593C7.29571 11.593 8.58488 11.1068 9.59751 10.2985L13.2261 13.8694C13.4029 14.0435 13.6899 14.0435 13.8668 13.8694C14.044 13.6952 14.044 13.4125 13.8672 13.2383ZM5.89013 10.7011C3.13762 10.7011 0.906279 8.50525 0.906279 5.79648C0.906279 3.0877 3.13762 0.891822 5.89013 0.891822C8.64266 0.891822 10.874 3.0877 10.874 5.79648C10.874 8.50525 8.64266 10.7011 5.89013 10.7011Z" fill="#4B4B4B"/>
</g>
<defs>
<clipPath id="clip0_241_11256">
<rect width="14" height="14" fill="white"/>
</clipPath>
</defs>
</svg>
