<svg width="70" height="70" viewBox="0 0 70 70" fill="none" xmlns="http://www.w3.org/2000/svg">
<circle cx="35" cy="35" r="35" fill="#7BC74C"/>
<g clip-path="url(#clip0_930_91330)">
<path d="M52.2339 31.078C51.7205 30.7333 51.2567 30.3197 50.8558 29.8489C50.8855 29.1934 51.0173 28.5465 51.2463 27.9316C51.6768 26.4741 52.213 24.6602 51.1797 23.2408C50.1388 21.8102 48.2374 21.7622 46.7098 21.7231C46.0672 21.7488 45.4244 21.6796 44.8019 21.518C44.4597 20.9811 44.1983 20.3968 44.0263 19.7838C43.5167 18.3322 42.8817 16.5256 41.1812 15.973C39.5312 15.4367 38.0505 16.4556 36.7448 17.3516C36.2201 17.7705 35.631 18.1017 35.0004 18.3322C34.3695 18.1019 33.7801 17.7707 33.2552 17.3516C31.9495 16.4548 30.4683 15.4392 28.8188 15.973C27.1188 16.5256 26.484 18.3313 25.9737 19.7832C25.8021 20.3932 25.5436 20.9753 25.2063 21.5117C24.5819 21.6783 23.9359 21.7494 23.2902 21.7226C21.7627 21.7616 19.8612 21.8097 18.8204 23.2402C17.7871 24.6604 18.3232 26.4743 18.7537 27.9319C18.9801 28.5436 19.113 29.1858 19.148 29.8371C18.7488 30.3146 18.2834 30.7325 17.7658 31.0781C16.5333 32.018 15 33.1882 15 34.9989C15 36.8097 16.5333 37.9798 17.7661 38.9198C18.2795 39.2645 18.7433 39.6781 19.1443 40.1489C19.1145 40.8044 18.9827 41.4513 18.7537 42.0662C18.3232 43.5237 17.787 45.3377 18.8203 46.757C19.8612 48.1877 21.7626 48.2357 23.2902 48.2747C23.9328 48.2491 24.5756 48.3182 25.1981 48.4798C25.5403 49.0167 25.8017 49.601 25.9737 50.214C26.4839 51.6658 27.1187 53.4723 28.8191 54.0251C29.1203 54.1238 29.4354 54.1741 29.7524 54.174C31.0322 54.174 32.2008 53.3707 33.2555 52.6465C33.7802 52.2274 34.3693 51.8962 35 51.6656C35.631 51.8959 36.2204 52.2271 36.7452 52.6462C38.0509 53.543 39.5317 54.5578 41.1817 54.0248C42.8817 53.4722 43.5164 51.6665 44.0267 50.2146C44.1983 49.6046 44.4568 49.0225 44.7941 48.4861C45.4185 48.3195 46.0645 48.2484 46.7102 48.2752C48.2377 48.2362 50.1392 48.1882 51.18 46.7576C52.2133 45.3375 51.6772 43.5235 51.2467 42.0659C51.0203 41.4543 50.8874 40.812 50.8524 40.1607C51.2516 39.6832 51.7171 39.2653 52.2347 38.9197C53.4667 37.9798 55 36.8097 55 34.9989C55 33.1882 53.4667 32.018 52.2339 31.078ZM42.4284 32.0107L34.0951 40.344C33.9404 40.4988 33.7566 40.6216 33.5544 40.7053C33.3522 40.7891 33.1355 40.8322 32.9167 40.8322C32.6978 40.8322 32.4811 40.7891 32.2789 40.7053C32.0767 40.6216 31.893 40.4988 31.7382 40.344L27.5716 36.1773C27.4136 36.0233 27.2878 35.8394 27.2014 35.6364C27.115 35.4333 27.0698 35.2152 27.0684 34.9945C27.067 34.7739 27.1095 34.5552 27.1933 34.3511C27.277 34.1469 27.4005 33.9615 27.5566 33.8055C27.7126 33.6494 27.898 33.526 28.1021 33.4422C28.3063 33.3584 28.525 33.3159 28.7456 33.3173C28.9663 33.3187 29.1844 33.3639 29.3875 33.4503C29.5905 33.5367 29.7744 33.6625 29.9284 33.8205L32.9167 36.8088L40.0716 29.6538C40.2256 29.4958 40.4095 29.37 40.6125 29.2836C40.8156 29.1973 41.0337 29.1521 41.2544 29.1507C41.475 29.1493 41.6937 29.1917 41.8979 29.2755C42.102 29.3593 42.2874 29.4828 42.4434 29.6388C42.5995 29.7948 42.723 29.9803 42.8067 30.1844C42.8905 30.3885 42.933 30.6072 42.9316 30.8279C42.9302 31.0485 42.885 31.2667 42.7986 31.4697C42.7122 31.6728 42.5864 31.8566 42.4284 32.0107Z" fill="white"/>
</g>
<defs>
<clipPath id="clip0_930_91330">
<rect width="40" height="40" fill="white" transform="translate(15 15)"/>
</clipPath>
</defs>
</svg>
