<svg width="32" height="32" viewBox="0 0 32 32" fill="none" xmlns="http://www.w3.org/2000/svg">
<g clip-path="url(#clip0_903_91295)">
<path d="M30.5001 0.5H22.0001C21.7349 0.5 21.4806 0.605357 21.293 0.792893C21.1055 0.98043 21.0001 1.23478 21.0001 1.5C21.0001 1.76522 21.1055 2.01957 21.293 2.20711C21.4806 2.39464 21.7349 2.5 22.0001 2.5H28.0041L18.8096 11.2765C18.7146 11.3672 18.6384 11.4757 18.5853 11.5958C18.5322 11.716 18.5033 11.8454 18.5003 11.9767C18.4972 12.108 18.52 12.2386 18.5675 12.3611C18.6149 12.4835 18.6859 12.5955 18.7766 12.6905C18.8673 12.7855 18.9758 12.8617 19.0959 12.9148C19.2161 12.9679 19.3455 12.9968 19.4768 12.9998C19.6081 13.0029 19.7387 12.9801 19.8612 12.9327C19.9837 12.8853 20.0956 12.8142 20.1906 12.7235L29.5001 3.837V10C29.5001 10.2652 29.6055 10.5196 29.793 10.7071C29.9806 10.8946 30.2349 11 30.5001 11C30.7653 11 31.0197 10.8946 31.2072 10.7071C31.3948 10.5196 31.5001 10.2652 31.5001 10V1.5C31.5001 1.23478 31.3948 0.98043 31.2072 0.792893C31.0197 0.605357 30.7653 0.5 30.5001 0.5Z" fill="white"/>
<path d="M30.4975 21.0009C30.2323 21.0009 29.9779 21.1063 29.7904 21.2938C29.6028 21.4813 29.4975 21.7357 29.4975 22.0009V28.0869L20.2045 18.7939C20.0159 18.6117 19.7633 18.5109 19.5011 18.5132C19.2389 18.5155 18.9881 18.6207 18.8027 18.8061C18.6173 18.9915 18.5121 19.2423 18.5098 19.5045C18.5075 19.7667 18.6083 20.0193 18.7905 20.2079L28.0835 29.5009H21.9975C21.7323 29.5009 21.4779 29.6063 21.2904 29.7938C21.1028 29.9813 20.9975 30.2357 20.9975 30.5009C20.9975 30.7661 21.1028 31.0205 21.2904 31.208C21.4779 31.3955 21.7323 31.5009 21.9975 31.5009H30.4975C30.7627 31.5009 31.017 31.3955 31.2046 31.208C31.3921 31.0205 31.4975 30.7661 31.4975 30.5009V22.0009C31.4975 21.7357 31.3921 21.4813 31.2046 21.2938C31.017 21.1063 30.7627 21.0009 30.4975 21.0009Z" fill="white"/>
<path d="M11.293 19.2938L2.5 28.0868V22.0008C2.5 21.7356 2.39464 21.4812 2.20711 21.2937C2.01957 21.1061 1.76522 21.0008 1.5 21.0008C1.23478 21.0008 0.98043 21.1061 0.792893 21.2937C0.605357 21.4812 0.5 21.7356 0.5 22.0008V30.5008C0.5 30.766 0.605357 31.0203 0.792893 31.2079C0.98043 31.3954 1.23478 31.5008 1.5 31.5008H10C10.2652 31.5008 10.5196 31.3954 10.7071 31.2079C10.8946 31.0203 11 30.766 11 30.5008C11 30.2356 10.8946 29.9812 10.7071 29.7937C10.5196 29.6061 10.2652 29.5008 10 29.5008H3.914L12.707 20.7078C12.8892 20.5192 12.99 20.2666 12.9877 20.0044C12.9854 19.7422 12.8802 19.4914 12.6948 19.306C12.5094 19.1205 12.2586 19.0154 11.9964 19.0131C11.7342 19.0108 11.4816 19.1116 11.293 19.2938Z" fill="white"/>
<path d="M3.914 2.5H10C10.2652 2.5 10.5196 2.39464 10.7071 2.20711C10.8946 2.01957 11 1.76522 11 1.5C11 1.23478 10.8946 0.98043 10.7071 0.792893C10.5196 0.605357 10.2652 0.5 10 0.5H1.5C1.23478 0.5 0.98043 0.605357 0.792893 0.792893C0.605357 0.98043 0.5 1.23478 0.5 1.5V10C0.5 10.2652 0.605357 10.5196 0.792893 10.7071C0.98043 10.8946 1.23478 11 1.5 11C1.76522 11 2.01957 10.8946 2.20711 10.7071C2.39464 10.5196 2.5 10.2652 2.5 10V3.914L11.293 12.707C11.4816 12.8892 11.7342 12.99 11.9964 12.9877C12.2586 12.9854 12.5094 12.8802 12.6948 12.6948C12.8802 12.5094 12.9854 12.2586 12.9877 11.9964C12.99 11.7342 12.8892 11.4816 12.707 11.293L3.914 2.5Z" fill="white"/>
</g>
<defs>
<clipPath id="clip0_903_91295">
<rect width="32" height="32" fill="white"/>
</clipPath>
</defs>
</svg>
