<svg width="14" height="14" viewBox="0 0 14 14" fill="none" xmlns="http://www.w3.org/2000/svg">
<g id="Layer_1">
<path id="Vector" d="M8.17001 8.57827C7.82171 8.81047 7.41713 8.93322 7 8.93322C6.5829 8.93322 6.17832 8.81047 5.83002 8.57827L0.0932148 4.75362C0.0613867 4.7324 0.0303789 4.71028 0 4.68753V10.9546C0 11.6732 0.583105 12.2434 1.28879 12.2434H12.7112C13.4297 12.2434 14 11.6603 14 10.9546V4.6875C13.9695 4.7103 13.9385 4.73248 13.9066 4.75373L8.17001 8.57827Z" fill="#4B4B4B"/>
<path id="Vector_2" d="M0.548242 4.07088L6.28504 7.89556C6.50221 8.04034 6.75109 8.11272 6.99997 8.11272C7.24888 8.11272 7.49779 8.04031 7.71496 7.89556L13.4518 4.07088C13.7951 3.84214 14 3.45933 14 3.04617C14 2.33575 13.422 1.75781 12.7116 1.75781H1.28836C0.577965 1.75784 0 2.33578 0 3.04685C0 3.45933 0.204969 3.84214 0.548242 4.07088Z" fill="#4B4B4B"/>
</g>
</svg>
