<svg width="24" height="24" viewBox="0 0 24 24" fill="none" xmlns="http://www.w3.org/2000/svg">
<g clip-path="url(#clip0_360_213501)">
<path d="M9.89173 18.1058C10.6577 17.3918 10.7757 16.2733 10.1552 15.6077C9.5347 14.9421 8.41074 14.9813 7.64475 15.6954C6.87877 16.4094 6.76082 17.5279 7.3813 18.1935C8.00179 18.8591 9.12574 18.8199 9.89173 18.1058Z" fill="#C20E34"/>
<path d="M20.0245 18.1058C20.7905 17.3918 20.9085 16.2733 20.288 15.6077C19.6675 14.9421 18.5436 14.9813 17.7776 15.6954C17.0116 16.4094 16.8936 17.5279 17.5141 18.1935C18.1346 18.8591 19.2586 18.8199 20.0245 18.1058Z" fill="#C20E34"/>
<path d="M1.85078 9.3668C1.85078 8.92475 1.49243 8.56641 1.05039 8.56641C0.608347 8.56641 0.25 8.92475 0.25 9.3668C0.25 9.80884 0.608347 10.1672 1.05039 10.1672C1.49243 10.1672 1.85078 9.80884 1.85078 9.3668Z" fill="#C20E34"/>
<path d="M16.2447 16.7311C16.5292 15.3248 17.8577 14.2073 19.2855 14.2073C20.6603 14.2073 21.6512 15.2438 21.6241 16.5764C23.1109 16.6153 23.5248 14.6573 23.5248 14.6573C23.65 14.1098 23.837 13.0425 23.9936 11.9948C24.0449 11.6714 24.0055 11.34 23.8797 11.0377C23.491 10.1303 23.0213 9.25995 22.4762 8.43703C21.9606 7.66781 21.0958 7.21219 20.1086 7.19578C19.5198 7.18641 18.9419 7.18078 18.5055 7.18078L18.5017 7.17703C18.4455 6.23578 17.7592 5.51484 16.7959 5.42859C16.1692 5.37281 13.6867 5.33203 12.4952 5.33203C12.0217 5.33203 11.3425 5.33859 10.6553 5.34984V5.34703H10.6497H2.3875C2.28234 5.34697 2.17821 5.36764 2.08104 5.40785C1.98388 5.44806 1.89559 5.50703 1.82124 5.58139C1.74688 5.65575 1.68791 5.74403 1.64769 5.8412C1.60748 5.93836 1.58681 6.0425 1.58687 6.14766V6.15141C1.58687 6.36275 1.67083 6.56544 1.82027 6.71488C1.96972 6.86433 2.17241 6.94828 2.38375 6.94828H4.04922C4.24976 6.96307 4.4373 7.05313 4.57423 7.20039C4.71115 7.34766 4.78733 7.54126 4.7875 7.74234V7.74656C4.78781 7.85182 4.76736 7.95611 4.72732 8.05345C4.68728 8.1508 4.62844 8.23929 4.55416 8.31387C4.47989 8.38846 4.39163 8.44766 4.29445 8.4881C4.19727 8.52853 4.09307 8.54941 3.98781 8.54953H3.13375C2.92154 8.54953 2.71801 8.63383 2.56795 8.78389C2.4179 8.93395 2.33359 9.13747 2.33359 9.34969C2.33353 9.45481 2.35418 9.5589 2.39437 9.65604C2.43455 9.75317 2.49348 9.84144 2.56779 9.91579C2.6421 9.99014 2.73033 10.0491 2.82744 10.0894C2.92455 10.1296 3.02863 10.1503 3.13375 10.1503H3.98781C4.20015 10.1503 4.40379 10.2347 4.55394 10.3848C4.70409 10.535 4.78844 10.7386 4.78844 10.9509C4.78844 11.1633 4.70409 11.3669 4.55394 11.5171C4.40379 11.6672 4.20015 11.7516 3.98781 11.7516H0.792812C0.580555 11.7516 0.376984 11.8358 0.226851 11.9859C0.0767179 12.1359 -0.00768823 12.3395 -0.0078125 12.5517C-0.0078125 12.7641 0.0765388 12.9677 0.226685 13.1178C0.376831 13.268 0.580474 13.3523 0.792812 13.3523H3.98781C4.20015 13.3523 4.40379 13.4367 4.55394 13.5868C4.70409 13.737 4.78844 13.9406 4.78844 14.153C4.78819 14.3651 4.70373 14.5685 4.55361 14.7185C4.40349 14.8684 4.19999 14.9527 3.98781 14.9527H2.99969C2.78747 14.9527 2.58395 15.037 2.43389 15.187C2.28383 15.3371 2.19953 15.5406 2.19953 15.7528C2.19953 15.9651 2.28382 16.1686 2.43386 16.3188C2.58391 16.4689 2.78743 16.5533 2.99969 16.5534L6.1525 16.5511L6.41453 15.8981C6.95125 14.9081 8.01906 14.2069 9.14969 14.2069C10.578 14.2069 11.5923 15.3253 11.4808 16.7325H16.2442M8.30359 8.92219H7.22922C7.2282 8.92227 7.22724 8.92268 7.22648 8.92336C7.22572 8.92403 7.2252 8.92494 7.225 8.92594L7.12609 9.62906C7.12595 9.62963 7.12594 9.63022 7.12606 9.63079C7.12618 9.63136 7.12643 9.63189 7.1268 9.63234C7.12716 9.6328 7.12762 9.63316 7.12815 9.63341C7.12868 9.63365 7.12926 9.63377 7.12984 9.63375H7.92953C7.96878 9.63263 8.00779 9.64029 8.04371 9.65617C8.07962 9.67204 8.11155 9.69573 8.13715 9.7255C8.16274 9.75528 8.18138 9.79039 8.19168 9.82829C8.20199 9.86618 8.20371 9.90589 8.19672 9.94453C8.18302 10.0295 8.14013 10.107 8.07545 10.1637C8.01077 10.2204 7.92834 10.2528 7.84234 10.2553H7.04172C7.04074 10.2553 7.03979 10.2556 7.03902 10.2562C7.03825 10.2568 7.03772 10.2576 7.0375 10.2586L6.89406 11.28C6.88036 11.3649 6.83748 11.4424 6.7728 11.4992C6.70812 11.5559 6.62568 11.5883 6.53969 11.5908C6.50045 11.5919 6.46145 11.5843 6.42555 11.5684C6.38965 11.5525 6.35775 11.5288 6.33219 11.499C6.30662 11.4692 6.28804 11.4341 6.27779 11.3962C6.26755 11.3583 6.2659 11.3186 6.27297 11.28L6.64516 8.63063C6.6599 8.54093 6.70538 8.45915 6.77379 8.39929C6.8422 8.33943 6.92929 8.30521 7.02016 8.3025H8.39031C8.42955 8.30137 8.46855 8.30902 8.50445 8.3249C8.54035 8.34077 8.57225 8.36447 8.59781 8.39426C8.62338 8.42405 8.64196 8.45918 8.65221 8.49707C8.66245 8.53496 8.6641 8.57467 8.65703 8.61328C8.64314 8.69779 8.60027 8.77484 8.53578 8.8312C8.47129 8.88756 8.38921 8.91973 8.30359 8.92219ZM11.1752 8.51344C11.2868 8.61246 11.3653 8.74336 11.4002 8.88844C11.4391 9.05279 11.4455 9.22319 11.4189 9.39C11.3863 9.64956 11.2801 9.89435 11.1128 10.0955C11.0107 10.2163 10.8809 10.3106 10.7345 10.3706C10.7339 10.3713 10.7335 10.3722 10.7335 10.3732C10.7335 10.3742 10.7339 10.3751 10.7345 10.3758L11.0008 11.1441C11.0725 11.3503 10.8883 11.5908 10.6591 11.5908H10.6441C10.5885 11.5924 10.5338 11.5763 10.4879 11.5448C10.4421 11.5133 10.4075 11.468 10.3891 11.4155L10.067 10.478C10.0666 10.4773 10.0659 10.4767 10.0652 10.4763C10.0645 10.4759 10.0637 10.4756 10.0628 10.4756H9.37844C9.37748 10.4757 9.37657 10.476 9.37581 10.4766C9.37506 10.4772 9.3745 10.478 9.37422 10.4789L9.26172 11.2795C9.24802 11.3645 9.20513 11.442 9.14045 11.4987C9.07577 11.5554 8.99334 11.5878 8.90734 11.5903C8.8681 11.5914 8.82911 11.5838 8.79321 11.5679C8.75731 11.552 8.72541 11.5283 8.69984 11.4986C8.67428 11.4688 8.65569 11.4336 8.64545 11.3957C8.6352 11.3578 8.63355 11.3181 8.64062 11.2795L9.01281 8.63016C9.02756 8.54046 9.07303 8.45868 9.14145 8.39882C9.20986 8.33896 9.29695 8.30474 9.38781 8.30203H10.4472C10.4472 8.30203 10.9122 8.2875 11.1752 8.51344ZM14.0908 8.59125C14.078 8.67058 14.038 8.74298 13.9776 8.79595C13.9172 8.84893 13.8402 8.87915 13.7598 8.88141H12.5275C12.5265 8.88146 12.5256 8.8818 12.5249 8.88239C12.5241 8.88297 12.5236 8.88378 12.5233 8.88469L12.4253 9.58031C12.4252 9.58088 12.4252 9.58147 12.4253 9.58204C12.4254 9.58261 12.4257 9.58314 12.426 9.58359C12.4264 9.58405 12.4268 9.58441 12.4274 9.58466C12.4279 9.5849 12.4285 9.58502 12.4291 9.585H13.3862C13.4229 9.58392 13.4593 9.59104 13.4929 9.60584C13.5264 9.62065 13.5563 9.64277 13.5802 9.67058C13.6041 9.69839 13.6215 9.7312 13.631 9.76659C13.6406 9.80199 13.6422 9.83908 13.6356 9.87516C13.6229 9.95449 13.5829 10.0269 13.5224 10.0799C13.462 10.1328 13.385 10.1631 13.3047 10.1653H12.347C12.3461 10.1654 12.3452 10.1657 12.3444 10.1663C12.3437 10.1669 12.3431 10.1677 12.3428 10.1686L12.2252 11.0058C12.2252 11.0069 12.2256 11.0081 12.2264 11.0089C12.2271 11.0098 12.2282 11.0104 12.2294 11.0105H13.4608C13.4974 11.0094 13.5339 11.0165 13.5674 11.0313C13.601 11.0461 13.6308 11.0682 13.6547 11.0961C13.6786 11.1239 13.696 11.1567 13.7056 11.1921C13.7152 11.2275 13.7167 11.2645 13.7102 11.3006C13.6974 11.38 13.6574 11.4524 13.597 11.5053C13.5365 11.5583 13.4595 11.5885 13.3792 11.5908H11.8511C11.8099 11.5914 11.769 11.5829 11.7314 11.5659C11.6938 11.5489 11.6605 11.5239 11.6336 11.4926C11.6068 11.4613 11.5872 11.4245 11.5761 11.3847C11.5651 11.345 11.563 11.3033 11.5698 11.2627L11.9397 8.63203C11.9544 8.54233 11.9999 8.46055 12.0683 8.40069C12.1367 8.34083 12.2238 8.30662 12.3147 8.30391H13.8423C13.8786 8.30305 13.9147 8.31023 13.9479 8.32493C13.9811 8.33964 14.0106 8.36151 14.0343 8.38898C14.0581 8.41644 14.0755 8.44882 14.0852 8.48379C14.095 8.51876 14.0969 8.55546 14.0908 8.59125ZM16.6506 8.59125C16.6379 8.67058 16.5979 8.74298 16.5374 8.79595C16.477 8.84893 16.4 8.87915 16.3197 8.88141H15.0873C15.0864 8.88146 15.0855 8.8818 15.0847 8.88239C15.084 8.88297 15.0834 8.88378 15.0831 8.88469L14.9856 9.58031C14.9855 9.58088 14.9855 9.58147 14.9856 9.58204C14.9857 9.58261 14.986 9.58314 14.9863 9.58359C14.9867 9.58405 14.9872 9.58441 14.9877 9.58466C14.9882 9.5849 14.9888 9.58502 14.9894 9.585H15.9466C15.9832 9.58392 16.0197 9.59104 16.0532 9.60584C16.0868 9.62065 16.1166 9.64277 16.1405 9.67058C16.1644 9.69839 16.1818 9.7312 16.1914 9.76659C16.201 9.80199 16.2025 9.83908 16.1959 9.87516C16.1832 9.95449 16.1432 10.0269 16.0827 10.0799C16.0223 10.1328 15.9453 10.1631 15.865 10.1653H14.9069C14.9059 10.1654 14.905 10.1657 14.9043 10.1663C14.9035 10.1669 14.9029 10.1677 14.9027 10.1686L14.785 11.0058C14.785 11.0069 14.7854 11.0081 14.7862 11.0089C14.787 11.0098 14.7881 11.0104 14.7892 11.0105H16.0206C16.0573 11.0094 16.0937 11.0165 16.1273 11.0313C16.1608 11.0461 16.1906 11.0682 16.2145 11.0961C16.2384 11.1239 16.2558 11.1567 16.2654 11.1921C16.275 11.2275 16.2766 11.2645 16.27 11.3006C16.2573 11.38 16.2172 11.4524 16.1568 11.5053C16.0964 11.5583 16.0194 11.5885 15.9391 11.5908H14.4109C14.3697 11.5914 14.3289 11.5829 14.2913 11.5659C14.2537 11.5489 14.2203 11.5239 14.1935 11.4926C14.1666 11.4613 14.147 11.4245 14.136 11.3847C14.125 11.345 14.1228 11.3033 14.1297 11.2627L14.4995 8.63203C14.5143 8.54233 14.5598 8.46055 14.6282 8.40069C14.6966 8.34083 14.7837 8.30662 14.8745 8.30391H16.4022C16.4385 8.30305 16.4745 8.31023 16.5077 8.32493C16.5409 8.33964 16.5704 8.36151 16.5942 8.38898C16.6179 8.41644 16.6353 8.44882 16.6451 8.48379C16.6548 8.51876 16.6567 8.55546 16.6506 8.59125ZM18.4319 8.29078C18.8505 8.29078 19.3923 8.29641 19.9361 8.30531C20.5952 8.31609 21.1717 8.61891 21.5177 9.13547C21.8872 9.69253 22.2193 10.2735 22.5119 10.8745C22.6666 11.1895 22.382 11.5997 22.0094 11.5997H18.0133L18.4319 8.29078Z" fill="#C20E34"/>
<path d="M10.1938 9.89765H9.45312L9.59375 8.88328H10.3339C10.3339 8.88328 10.8772 8.84812 10.7881 9.39046C10.7905 9.39046 10.7281 9.89765 10.1938 9.89765Z" fill="#C20E34"/>
</g>
<defs>
<clipPath id="clip0_360_213501">
<rect width="24" height="24" fill="white"/>
</clipPath>
</defs>
</svg>
