<svg width="44" height="44" viewBox="0 0 44 44" fill="none" xmlns="http://www.w3.org/2000/svg">
<g clip-path="url(#clip0_241_11709)">
<path d="M29.2573 21.1397L20.1208 14.4982C19.7855 14.2552 19.3404 14.2186 18.9729 14.4075C18.6024 14.5949 18.3711 14.9756 18.3711 15.387V28.6656C18.3711 29.0814 18.6024 29.4607 18.9729 29.6481C19.1295 29.7271 19.3008 29.7667 19.4736 29.7667C19.6991 29.7667 19.9275 29.6949 20.1208 29.5529L29.2573 22.9173C29.5457 22.7049 29.7141 22.377 29.7141 22.0285C29.7155 21.6742 29.5428 21.3477 29.2573 21.1397Z" fill="white"/>
<path d="M22.0007 0.00268555C9.84806 0.00268555 0 9.85074 0 22.0034C0 34.1517 9.84806 43.9968 22.0007 43.9968C34.1505 43.9968 44 34.1502 44 22.0034C44.0015 9.85074 34.1505 0.00268555 22.0007 0.00268555ZM22.0007 40.3261C11.8803 40.3261 3.67509 32.1253 3.67509 22.0034C3.67509 11.886 11.8803 3.67484 22.0007 3.67484C32.1197 3.67484 40.3234 11.8845 40.3234 22.0034C40.3249 32.1253 32.1197 40.3261 22.0007 40.3261Z" fill="white"/>
</g>
<defs>
<clipPath id="clip0_241_11709">
<rect width="44" height="44" fill="white"/>
</clipPath>
</defs>
</svg>
