<svg width="48" height="84" viewBox="0 0 48 84" fill="none" xmlns="http://www.w3.org/2000/svg">
<path id="Vector" d="M47.8678 28.8093C47.6364 28.3164 47.1379 28.0001 46.5888 28.0001H29.8594L46.3699 2.14906C46.6452 1.7179 46.6621 1.1719 46.4137 0.725322C46.1653 0.277266 45.6908 0 45.1769 0H22.5888C22.0537 0 21.5652 0.299579 21.3253 0.774212L0.148865 42.7743C-0.0700131 43.2069 -0.0460242 43.7221 0.210905 44.135C0.469324 44.548 0.922467 44.8 1.41234 44.8H15.9294L0.110648 82.0568C-0.159021 82.6939 0.0810343 83.433 0.675298 83.7943C0.903937 83.9329 1.15805 84 1.41085 84C1.81601 84 2.21555 83.8277 2.49234 83.5031L47.6688 30.3029C48.023 29.8858 48.0993 29.3034 47.8678 28.8093Z" fill="#FFD600"/>
</svg>
